<svg id="图层_1" data-name="图层 1" xmlns="http://www.w3.org/2000/svg" viewBox="0 0 358 256"><title>logo</title><path d="M109.36,223.88V32.12h56.16c14.64,0,18.48,3.6,18.48,16.8v82.8c0,13-3.84,16.8-18.48,16.8H125.44v75.36ZM125.44,48.2v84.24h42.48V48.2Z" transform="translate(-77)"/><path d="M265.12,144.44c7.2,8.16,7.68,9.84,7.92,15.84v46.8c0,13-3.84,16.8-18.48,16.8H221.92c-14.64,0-18.48-3.84-18.48-16.8V155.24h16.08V207.8H257V162.68c0-5-.48-6.48-3.84-10.8L213,100.52c-7.68-9.36-9.6-12-9.6-18.48V48.92c0-13.2,3.84-16.8,18.48-16.8h32.64c14.64,0,18.48,3.6,18.48,16.8V87.56H257V48.2H219.52V81.8c0,3.84.72,5.52,3.12,8.16Z" transform="translate(-77)"/><path d="M311,32.12h37.68c14.64,0,18.48,3.6,18.48,16.8V89.48H351V48.2H308.56V207.8H351v-49h16.08v48.24c0,13-3.84,16.8-18.48,16.8H311c-14.64,0-18.48-3.84-18.48-16.8V48.92C292.48,35.72,296.32,32.12,311,32.12Z" transform="translate(-77)"/><path d="M386.56,32.12,403,48l-.36,175.88H386.56Z" transform="translate(-77)"/><polygon points="277 0 289 12 12 12 12 244 346 244 346 69 358 81 358 256 0 256 0 0 277 0"/><polygon points="358 0 358 65 293 0 358 0" style="fill:#2578b5"/></svg>