<?xml version="1.0" encoding="UTF-8" standalone="no"?>
<!DOCTYPE svg PUBLIC "-//W3C//DTD SVG 1.1//EN" "http://www.w3.org/Graphics/SVG/1.1/DTD/svg11.dtd">
<svg width="100%" height="100%" viewBox="0 0 512 512" version="1.1" xmlns="http://www.w3.org/2000/svg" xmlns:xlink="http://www.w3.org/1999/xlink" xml:space="preserve" xmlns:serif="http://www.serif.com/" style="fill-rule:evenodd;clip-rule:evenodd;stroke-linejoin:round;stroke-miterlimit:2;">
    <g transform="matrix(1,0,0,1,76,76)">
        <g transform="matrix(512,0,0,-512,-76,180)">
            <rect x="0" y="-0.5" width="1" height="1" style="fill:url(#_Linear1);"/>
        </g>
        <g transform="matrix(1.22257,0,0,1.22257,-40.6199,-38.7257)">
            <g transform="matrix(1,0,0,1,193.863,304.861)">
                <path d="M0,-53.828L15.551,-26.315L-19.138,-4.785L-53.828,0L-34.688,-47.847L0,-53.828Z" style="fill:rgb(201,201,201);fill-rule:nonzero;"/>
            </g>
            <g transform="matrix(0.890603,-0.454782,-0.454782,-0.890603,249.348,148.487)">
                <path d="M-27.077,-7.298C-27.077,-7.298 0.758,57.731 -1.373,58.819C-3.503,59.907 -27.077,118.953 -27.077,118.953L-62.301,2.63L-27.077,-7.298Z" style="fill:rgb(201,201,201);fill-rule:nonzero;"/>
            </g>
            <g transform="matrix(1,0,0,1,297.931,167.301)">
                <path d="M0,21.532L2.393,0L-15.55,0L0,21.532Z" style="fill:rgb(201,201,201);fill-rule:nonzero;"/>
            </g>
            <g transform="matrix(1,0,0,1,246.495,217.541)">
                <path d="M0,-57.416L-34.688,-56.22L-58.612,-90.909L-181.818,-144.737L-172.249,-84.928L-104.067,-7.177L-63.397,-9.569L-112.44,28.709L-167.464,39.474L-150.718,66.986L-106.459,87.321L-81.34,49.043L-25.119,35.885L20.335,-15.55L29.904,-43.062L53.828,-50.239L39.474,-65.79L0,-57.416Z" style="fill:white;fill-rule:nonzero;"/>
            </g>
        </g>
    </g>
    <defs>
        <linearGradient id="_Linear1" x1="0" y1="0" x2="1" y2="0" gradientUnits="userSpaceOnUse" gradientTransform="matrix(0,1,1,0,0.5,-0.5)"><stop offset="0" style="stop-color:rgb(59,30,95);stop-opacity:1"/><stop offset="1" style="stop-color:rgb(104,71,141);stop-opacity:1"/></linearGradient>
    </defs>
</svg>
