<?xml version="1.0" encoding="utf-8"?>
<!-- Generator: Adobe Illustrator 22.0.1, SVG Export Plug-In . SVG Version: 6.00 Build 0)  -->
<svg version="1.1" id="图层_1" xmlns="http://www.w3.org/2000/svg" xmlns:xlink="http://www.w3.org/1999/xlink" x="0px" y="0px"
	 viewBox="0 0 256 256" style="enable-background:new 0 0 256 256;" xml:space="preserve">
<style type="text/css">
	.st0{display:none;fill:#2578B5;}
	.st1{fill:#C9C9C9;}
	.st2{fill:#FFFFFF;}
</style>
<rect class="st0" width="256" height="256"/>
<polygon class="st1" points="141.9,199 157.4,226.5 122.7,248.1 88,252.9 107.2,205 "/>
<path class="st1" d="M176.6,115.3c0,0-4.8-70.6-7.2-70.6c-2.4,0-50.2-41.9-50.2-41.9l21.5,119.6L176.6,115.3z"/>
<polygon class="st1" points="245.9,136.8 248.3,115.3 230.4,115.3 "/>
<polygon class="st2" points="194.5,108.1 159.8,109.3 135.9,74.6 12.7,20.8 22.2,80.6 90.4,158.4 131.1,156 82.1,194.2 27,205 
	43.8,232.5 88,252.9 113.2,214.6 169.4,201.4 214.8,150 224.4,122.5 248.3,115.3 234,99.8 "/>
</svg>
