<svg id="图层_1" data-name="图层 1" xmlns="http://www.w3.org/2000/svg" xmlns:xlink="http://www.w3.org/1999/xlink" viewBox="0 0 360 360"><defs><linearGradient id="未命名的渐变_13" x1="180" y1="360" x2="180" gradientUnits="userSpaceOnUse"><stop offset="0" stop-color="#004d85"/><stop offset="1" stop-color="#2578b5"/></linearGradient></defs><title>Potori 3-icon</title><rect width="360" height="360" style="fill:url(#未命名的渐变_13)"/><polygon points="193.86 251.03 209.41 278.55 174.72 300.08 140.04 304.86 159.18 257.01 193.86 251.03" style="fill:#c9c9c9"/><path d="M228.55,167.3s-4.78-70.57-7.17-70.57-50.24-41.87-50.24-41.87l21.53,119.62Z" style="fill:#c9c9c9"/><polygon points="297.93 188.83 300.32 167.3 282.38 167.3 297.93 188.83" style="fill:#c9c9c9"/><polygon points="246.5 160.12 211.81 161.32 187.88 126.63 64.68 72.8 74.25 132.61 142.43 210.36 183.1 207.97 134.06 246.25 79.03 257.01 95.78 284.53 140.04 304.86 165.16 266.58 221.38 253.43 266.83 201.99 276.4 174.48 300.32 167.3 285.97 151.75 246.5 160.12" style="fill:#fff"/></svg>