<?xml version="1.0" encoding="utf-8"?>
<!-- Generator: Adobe Illustrator 22.0.1, SVG Export Plug-In . SVG Version: 6.00 Build 0)  -->
<svg version="1.1" id="图层_1" xmlns="http://www.w3.org/2000/svg" xmlns:xlink="http://www.w3.org/1999/xlink" x="0px" y="0px"
	 viewBox="0 0 360 360" style="enable-background:new 0 0 360 360;" xml:space="preserve">
<style type="text/css">
	.st0{fill:url(#SVGID_1_);}
	.st1{fill:#C9C9C9;}
	.st2{fill:#FFFFFF;}
</style>
<linearGradient id="SVGID_1_" gradientUnits="userSpaceOnUse" x1="180" y1="360" x2="180" y2="-9.094947e-13">
	<stop  offset="0" style="stop-color:#150035"/>
	<stop  offset="1" style="stop-color:#3B1E5F"/>
</linearGradient>
<rect class="st0" width="360" height="360"/>
<polygon class="st1" points="193.9,251 209.4,278.5 174.7,300.1 140,304.9 159.2,257 "/>
<path class="st1" d="M228.6,167.3c0,0-4.8-70.6-7.2-70.6c-2.4,0-50.2-41.9-50.2-41.9l21.5,119.6L228.6,167.3z"/>
<polygon class="st1" points="297.9,188.8 300.3,167.3 282.4,167.3 "/>
<polygon class="st2" points="246.5,160.1 211.8,161.3 187.9,126.6 64.7,72.8 74.2,132.6 142.4,210.4 183.1,208 134.1,246.2 79,257 
	95.8,284.5 140,304.9 165.2,266.6 221.4,253.4 266.8,202 276.4,174.5 300.3,167.3 286,151.8 "/>
<g>
</g>
<g>
</g>
<g>
</g>
<g>
</g>
<g>
</g>
<g>
</g>
<g>
</g>
<g>
</g>
<g>
</g>
<g>
</g>
<g>
</g>
<g>
</g>
<g>
</g>
<g>
</g>
<g>
</g>
</svg>
